# xmcd
#
# Track frame offsets:
#	150
#	13076
#	20526
#	30341
#	43347
#	53157
#	63337
#	77963
#	94081
#	108471
#	131092
#	151294
#	182465
#
# Disc length: 2773 seconds
#
# Revision: 1
# Processed by: cddbd v1.5.1PL0 Copyright (c) Steve Scherf et al.
# Submitted via: CDex 1.50Beta5
#
DISCID=a40ad30d
DTITLE=アコーディオン - 休日の音楽
DYEAR=1900
DGENRE=Classical
TTITLE0=わらの中の七面鳥
TTITLE1=アイルランドの洗濯女
TTITLE2=コック・オー・ザ・ノース
TTITLE3=ザ・シルバー・スピアー
TTITLE4=ブルーヒルの少年たち
TTITLE5=ザ・アイリッシュ・ロバー
TTITLE6=ホエン・アイリッシュ・アイズアー・スマイリング
TTITLE7=ザ・ケリー・ダンス
TTITLE8=ブラック・ベルト・バンド
TTITLE9=ラグラン・ロード
TTITLE10=ダニー・ボーイ
TTITLE11=モーリー・マローン
TTITLE12=野花
EXTD=
EXTT0=
EXTT1=
EXTT2=
EXTT3=
EXTT4=
EXTT5=
EXTT6=
EXTT7=
EXTT8=
EXTT9=
EXTT10=
EXTT11=
EXTT12=
PLAYORDER=
